<?xml version="1.0" encoding="UTF-8" standalone="no"?>
<!-- Created with Inkscape (http://www.inkscape.org/) -->

<svg
   width="11"
   height="3"
   viewBox="0 0 2.9104167 0.79375004"
   version="1.1"
   id="svg5"
   inkscape:version="1.1.2 (0a00cf5339, 2022-02-04, custom)"
   sodipodi:docname="muni.svg"
   inkscape:export-filename="X:\Users\Mingw\Documents\sfmta\stop sign\new_bus_stop_sign_letter.png"
   inkscape:export-xdpi="120"
   inkscape:export-ydpi="120"
   xmlns:inkscape="http://www.inkscape.org/namespaces/inkscape"
   xmlns:sodipodi="http://sodipodi.sourceforge.net/DTD/sodipodi-0.dtd"
   xmlns="http://www.w3.org/2000/svg"
   xmlns:svg="http://www.w3.org/2000/svg">
  <sodipodi:namedview
     id="namedview7"
     pagecolor="#dddddd"
     bordercolor="#ffffff"
     borderopacity="1"
     inkscape:pageshadow="0"
     inkscape:pageopacity="0"
     inkscape:pagecheckerboard="1"
     inkscape:document-units="mm"
     showgrid="false"
     units="px"
     inkscape:zoom="0.27496365"
     inkscape:cx="1671.13"
     inkscape:cy="438.23974"
     inkscape:window-width="2560"
     inkscape:window-height="1361"
     inkscape:window-x="-9"
     inkscape:window-y="-9"
     inkscape:window-maximized="1"
     inkscape:current-layer="layer1" />
  <defs
     id="defs2" />
  <g
     inkscape:label="Layer 1"
     inkscape:groupmode="layer"
     id="layer1">
    <rect
       style="fill:#2b7dca;fill-opacity:1;stroke:none;stroke-width:4.40496;stroke-linecap:round;stroke-miterlimit:4;stroke-dasharray:none;stroke-opacity:1"
       id="rect20885"
       width="1100"
       x="0"
       y="0"
       height="250" />
    <path
       id="path102660"
       style="fill:#ffffff;stroke-width:3.99951"
       d="m 302.00656,186.63989 v -80.79093 c 0,0 0,-3.87078 -3.95418,-3.87078 -3.7514,0 -3.7514,3.87078 -3.7514,3.87078 V 217.15257 H 278.90129 V 90.407722 c 0,0 -0.36978,-19.228477 19.15109,-19.228477 19.22844,0 19.22844,19.228477 19.22844,19.228477 v 69.262118 c 0,0 0,26.97006 26.92839,26.97006 26.92828,0 26.92828,-26.97006 26.92828,-26.97006 V 32.471581 h 15.39953 V 186.63989 c 0,0 0,34.55053 -42.32781,34.55053 -42.20265,0 -42.20265,-34.55053 -42.20265,-34.55053 M 209.63918,159.84277 V 32.471581 h 15.4056 V 144.31204 c 0,0 -0.37573,3.8708 3.829,3.8708 4.24046,0 3.82901,-3.8708 3.82901,-3.8708 V 32.471581 h 15.39343 V 159.66984 c 0,0 1.58656,19.27026 -19.22244,19.27026 -20.77333,0 -19.2346,-19.09732 -19.2346,-19.09732 M 71.204583,178.94009 71.16325,105.84896 c 0,0 0,-3.87078 -3.835003,-3.87078 -3.864665,0 -3.864665,3.87078 -3.864665,3.87078 V 217.15257 H 48.105784 V 90.407722 c 0,0 0,-19.228477 19.222464,-19.228477 19.234602,0 19.234602,19.228477 19.234602,19.228477 v 69.262118 c 0,0 0,26.97006 26.88639,26.97006 26.97607,0 26.97607,-26.97006 26.97607,-26.97006 V 90.407722 c 0,0 -0.33988,-19.228477 19.1451,-19.228477 19.31204,0 19.31204,19.228477 19.31204,19.228477 V 217.15257 H 163.52464 V 105.84896 c 0,0 0,-3.87078 -3.95419,-3.87078 -3.74561,0 -3.74561,3.87078 -3.74561,3.87078 v 73.09113 c 0,0 -0.501,42.25033 -42.3756,42.25033 -41.874391,0 -42.244192,-42.25033 -42.244192,-42.25033 M 394.28439,32.471581 H 425 V 217.15257 h -30.71561 z m 0,0 M 186.58167,178.94001 V 90.407612 c 0,0 0,-26.844754 -27.01176,-26.844754 -26.84492,0 -26.84492,26.844754 -26.84492,26.844754 v 69.262098 c 0,0 0,19.2703 -19.27627,19.2703 -19.22844,0 -19.22844,-19.2703 -19.22844,-19.2703 V 90.407612 c 0,0 0,-26.844754 -26.892547,-26.844754 -26.928262,0 -26.928262,26.844754 -26.928262,26.844754 V 217.15249 H 25 V 71.179151 c 0,0 0,-42.369574 42.327733,-42.369574 42.333837,0 42.333837,42.369574 42.333837,42.369574 l 0.16703,73.669619 c 0,0 -0.16703,3.33398 3.62028,3.33398 4.03785,0 3.91248,-3.87082 3.91248,-3.87082 V 71.179151 c 0,0 0,-42.369574 42.20867,-42.369574 42.41126,0 42.33369,42.369574 42.33369,42.369574 l 0.078,88.490559 c 0,0 -1.24648,26.97009 26.89255,26.97009 28.17479,0 26.8866,-26.97009 26.8866,-26.97009 l 0.0351,-88.490559 c 0,0 0,-42.369574 42.25631,-42.369574 42.28604,0 42.28604,42.369574 42.28604,42.369574 l 0.12527,73.132779 c 0,0 -0.12527,3.87083 3.74564,3.87083 3.82897,0 3.82897,-3.87083 3.82897,-3.87083 V 32.471541 h 15.40545 V 159.66971 c 0,0 0,19.2703 -19.23442,19.2703 -19.27029,0 -19.27029,-19.2703 -19.27029,-19.2703 V 90.407612 c 0,0 0,-26.844754 -26.8866,-26.844754 -26.85074,0 -26.85074,26.844754 -26.85074,26.844754 v 88.532398 c 0,0 0,42.25032 -42.32786,42.25032 -42.29202,0 -42.29202,-42.25031 -42.29202,-42.25031" />
  </g>
</svg>
