<?xml version="1.0" encoding="UTF-8" standalone="no"?>
<!-- Created with Inkscape (http://www.inkscape.org/) -->

<svg
   width="10mm"
   height="10mm"
   viewBox="0 0 10 10"
   version="1.1"
   id="svg18964"
   inkscape:version="1.1.2 (0a00cf5339, 2022-02-04, custom)"
   sodipodi:docname="no-smoking.svg"
   xmlns:inkscape="http://www.inkscape.org/namespaces/inkscape"
   xmlns:sodipodi="http://sodipodi.sourceforge.net/DTD/sodipodi-0.dtd"
   xmlns="http://www.w3.org/2000/svg"
   xmlns:svg="http://www.w3.org/2000/svg">
  <sodipodi:namedview
     id="namedview18966"
     pagecolor="#505050"
     bordercolor="#ffffff"
     borderopacity="1"
     inkscape:pageshadow="0"
     inkscape:pageopacity="0"
     inkscape:pagecheckerboard="1"
     inkscape:document-units="mm"
     showgrid="false"
     inkscape:zoom="6.2217172"
     inkscape:cx="96.998945"
     inkscape:cy="37.369105"
     inkscape:window-width="2560"
     inkscape:window-height="1361"
     inkscape:window-x="-9"
     inkscape:window-y="-9"
     inkscape:window-maximized="1"
     inkscape:current-layer="layer1" />
  <defs
     id="defs18961" />
  <g
     inkscape:label="Layer 1"
     inkscape:groupmode="layer"
     id="layer1">
    <path
       id="circle60610"
       style="-inkscape-stroke:none;color:#000000;fill:#ffffff;stroke-width:0.99999938599"
       d="M 5.00021 0 C 2.24398 -1.2085e-08 -6.26658e-16 2.24398 0 5.00021 C 6.04247e-08 7.75643 2.24398 9.99989 5.00021 9.99989 C 7.75643 9.99989 9.99989 7.75643 9.99989 5.00021 C 9.99989 2.24398 7.75643 -6.26658e-16 5.00021 0 Z M 5.00021 0.876948 C 7.28236 0.876948 9.12295 2.71805 9.12295 5.00021 C 9.12295 6.14431 8.66012 7.17707 7.91114 7.92302 L 6.3133 6.32519 L 7.19593 6.32519 L 7.19593 5.15523 L 5.14335 5.15523 L 2.07687 2.08876 C 2.82283 1.33976 3.85609 0.876948 5.00021 0.876948 Z M 5.37693 1.53582 C 5.05137 1.53582 4.56323 1.82509 4.56302 2.40864 C 4.56302 2.79894 4.84389 3.13767 5.25032 3.23804 C 5.37617 3.2691 5.37796 3.2672 5.37796 3.34139 C 5.37796 3.37999 5.37486 3.39943 5.37486 3.43803 C 5.37486 3.85348 5.64374 4.01776 5.87974 4.13049 L 6.44043 4.13876 C 7.03402 4.14772 7.07924 4.15308 7.19593 4.22248 C 7.26339 4.26258 7.32789 4.35503 7.34631 4.43797 C 7.35499 4.47708 7.36233 4.60389 7.36233 4.7196 C 7.36233 4.8353 7.36675 4.93403 7.37215 4.93923 C 7.37753 4.94445 7.44379 4.94853 7.51943 4.94853 L 7.65689 4.94853 L 7.65689 4.69583 C 7.65689 4.4209 7.64236 4.33584 7.57421 4.20594 C 7.52327 4.10888 7.40399 3.99598 7.30135 3.94756 C 7.13077 3.86709 7.10337 3.8638 6.5076 3.85454 C 5.89822 3.84506 5.89724 3.84509 5.80274 3.75222 C 5.71859 3.66952 5.67406 3.55135 5.67406 3.43131 C 5.67406 3.27811 5.75468 3.18614 5.75468 3.12487 C 5.75468 2.85273 4.99997 3.17036 4.86895 2.48977 C 4.86345 2.46123 4.86068 2.43196 4.86068 2.40192 C 4.86068 2.09475 5.14136 1.83244 5.32835 1.83244 C 5.42174 1.83244 5.43067 1.79843 5.43067 1.74718 C 5.43067 1.71471 5.43067 1.68665 5.43067 1.66295 C 5.43067 1.56344 5.4261 1.53582 5.37693 1.53582 Z M 5.82186 1.82056 C 5.81309 1.82056 5.80424 1.82087 5.73401 1.82521 L 5.73401 2.09393 C 5.73401 2.09394 6.44045 2.14058 6.44043 2.73936 C 6.43897 3.09287 6.26008 3.20435 6.26008 3.31607 C 6.26008 3.43441 6.33037 3.45457 6.66005 3.45457 C 7.00844 3.45457 7.12887 3.47345 7.2998 3.55482 C 7.51539 3.65744 7.68484 3.85446 7.77058 4.10207 C 7.80809 4.21043 7.81051 4.23182 7.81502 4.5501 C 7.81762 4.73402 7.82287 4.89889 7.8269 4.91649 C 7.83392 4.94712 7.84074 4.94853 7.98297 4.94853 L 8.13179 4.94853 L 8.12456 4.58938 C 8.11827 4.26031 8.11454 4.21852 8.0796 4.09122 C 7.94951 3.6174 7.58529 3.27733 7.11532 3.1905 C 7.05503 3.17937 6.93404 3.16983 6.84609 3.16983 C 6.70828 3.16983 6.6771 3.16253 6.6771 3.15122 C 6.6771 3.07398 6.74893 2.99696 6.74893 2.7652 C 6.74893 2.13035 6.16069 1.82056 5.82186 1.82056 Z M 1.38544 3.01067 L 3.53001 5.15523 L 1.62987 5.15523 L 1.62987 6.32519 L 4.69997 6.32519 L 6.98923 8.61445 C 6.39985 8.93867 5.72225 9.12295 5.00021 9.12295 C 2.71805 9.12295 0.876948 7.28236 0.876948 5.00021 C 0.876948 4.27816 1.06122 3.60004 1.38544 3.01067 Z M 7.36233 5.15523 L 7.36233 6.32519 L 7.65327 6.32519 L 7.65327 5.15523 L 7.36233 5.15523 Z M 7.83724 5.15523 L 7.83724 6.32519 L 8.12818 6.32519 L 8.12818 5.15523 L 7.83724 5.15523 Z" />
  </g>
</svg>
