<?xml version="1.0" encoding="UTF-8" standalone="no"?>
<!-- Created with Inkscape (http://www.inkscape.org/) -->

<svg
   width="10mm"
   height="10mm"
   viewBox="0 0 10 10"
   version="1.1"
   id="svg20028"
   sodipodi:docname="owl.svg"
   inkscape:version="1.2.1 (9c6d41e410, 2022-07-14)"
   xmlns:inkscape="http://www.inkscape.org/namespaces/inkscape"
   xmlns:sodipodi="http://sodipodi.sourceforge.net/DTD/sodipodi-0.dtd"
   xmlns="http://www.w3.org/2000/svg"
   xmlns:svg="http://www.w3.org/2000/svg">
  <sodipodi:namedview
     id="namedview20030"
     pagecolor="#505050"
     bordercolor="#ffffff"
     borderopacity="1"
     inkscape:pageshadow="0"
     inkscape:pageopacity="0"
     inkscape:pagecheckerboard="1"
     inkscape:document-units="mm"
     showgrid="false"
     inkscape:zoom="22.627417"
     inkscape:cx="21.765631"
     inkscape:cy="18.760427"
     inkscape:window-width="2560"
     inkscape:window-height="1361"
     inkscape:window-x="-9"
     inkscape:window-y="464"
     inkscape:window-maximized="1"
     inkscape:current-layer="layer1"
     inkscape:showpageshadow="0"
     inkscape:deskcolor="#505050" />
  <defs
     id="defs20025" />
  <g
     inkscape:label="Layer 1"
     inkscape:groupmode="layer"
     id="layer1">
    <path
       id="path21247"
       style="opacity:1;fill:#ffffff;fill-opacity:1;stroke-width:0.264586;stop-color:#000000"
       d="M 4.9997361,0 C 2.2383335,1.6859961e-4 -1.1040115e-4,2.2388511 -4.0134276e-7,5.0002636 1.5959857e-4,7.7614658 2.2385335,9.99984 4.9997361,10 c 8e-5,0 1.58e-4,-5.1e-6 2.58e-4,-5.1e-6 V 8.9142626 c -9e-5,0 -1.58e-4,5.2e-6 -2.58e-4,5.2e-6 -0.3647829,0 -0.4024968,-0.043639 -0.3519165,-0.4046213 0.04811,-0.3433829 0.026031,-0.405685 -0.067179,-0.1912132 C 4.4399389,8.642166 4.410747,8.688546 4.3232864,8.7204863 4.2602158,8.7435166 4.2005755,8.7253361 4.1134748,8.6558856 3.9917838,8.5588548 3.9918047,8.5585816 4.1723963,8.207329 4.3529778,7.856076 4.3529953,7.8561503 4.1041731,8.1189623 3.8437911,8.3940144 3.8084024,8.413853 3.7259016,8.3313524 3.6322509,8.2377017 3.6745008,8.1382575 3.8902326,7.944296 4.1311746,7.7276742 4.0790821,7.6870278 3.7765496,7.8559293 3.5486978,7.9831301 3.5229462,7.9851991 3.494386,7.8760882 3.4765258,7.8077678 3.5113695,7.7707036 3.6685407,7.6900427 3.7764015,7.6346924 3.9023919,7.5595015 3.9486322,7.522611 4.045683,7.4452005 4.0788654,7.4812415 3.6013614,7.1396886 3.3380893,6.9513672 3.337794,6.9517666 3.1595227,7.0632075 3.0614719,7.1244982 2.9125522,7.2286727 2.8282716,7.2947231 2.66183,7.4251543 2.5840703,7.4417017 2.5068493,7.3644811 c -0.03848,-0.03848 -0.034306,-0.06706 0.019115,-0.1260905 0.100021,-0.1105209 0.052345,-0.1277343 -0.1529674,-0.055294 -0.2264518,0.079891 -0.3551333,0.080372 -0.4201243,0.00206 -0.05715,-0.06885 -0.025605,-0.1488333 0.058906,-0.1488333 0.082331,0 0.2879152,-0.114159 0.2475353,-0.1374489 -0.03945,-0.02276 -0.1916304,-0.013001 -0.500233,0.032029 C 1.59704,6.9545534 1.5139961,6.9457324 1.4133552,6.8937014 1.2791133,6.8242814 1.167855,6.6770897 1.2257749,6.6456494 c 0.01741,-0.00945 0.2254423,-0.053251 0.4625041,-0.097152 0.2370717,-0.0439 0.4309814,-0.090998 0.4309814,-0.104898 0,-0.0139 -0.2088494,-0.037573 -0.4645711,-0.052204 C 1.3709667,6.3751682 1.1371937,6.3397918 1.0552428,6.2999414 0.89666189,6.2228109 0.75731879,6.0468149 0.78909877,5.9640343 c 0.02344,-0.06106 0.12776958,-0.05676 0.54416323,0.023771 0.2405717,0.04653 0.4046367,-0.010228 0.3209158,-0.1110993 -0.02746,-0.03308 -0.091462,-0.05995 -0.1426321,-0.05995 -0.093131,0 -0.57502813,-0.146293 -0.69815901,-0.2118734 -0.1022909,-0.054481 -0.23391037,-0.3252342 -0.18292941,-0.3762148 0.0386,-0.0386 0.24411926,0.00668 0.52193202,0.1152385 0.03469,0.01356 0.1005253,0.029213 0.1467662,0.034633 0.04626,0.00541 0.1592108,0.038002 0.2506307,0.072342 0.1959918,0.07364 0.3058414,0.054177 0.2139405,-0.037724 -0.03245,-0.03245 -0.075648,-0.058911 -0.096118,-0.058911 -0.02045,0 -0.1363645,-0.047838 -0.2578654,-0.1064586 C 1.2882322,5.1891782 1.1000017,5.1107961 0.99168073,5.0741557 0.71009799,4.978935 0.58624753,4.877834 0.53071659,4.6969126 0.47398565,4.5120611 0.49334388,4.4751821 0.60926477,4.5475729 c 0.046151,0.02882 0.27457647,0.095239 0.3591564,0.1110991 0.0845909,0.01587 0.59620643,0.2061704 0.64647733,0.2330607 0.1088509,0.058261 0.1579418,0.025953 0.088372,-0.057867 C 1.6744194,4.7990951 0.92392105,4.4851194 0.88864308,4.4698618 0.75250721,4.4042722 0.52485949,4.1552319 0.54156347,3.9253833 c 0.02282,-0.03693 0.77574623,0.2804964 0.84030023,0.3034338 0.055074,0.020124 0.2572868,0.097155 0.2748928,0.1024744 0.022682,0.00588 0.04238,-3.72e-4 0.04238,-0.023503 0,-0.02312 -0.01923,-0.053923 -0.04238,-0.068213 C 1.6531785,4.237367 1.546905,4.1775834 1.4468571,4.1214696 1.3842442,4.0830164 1.3109116,4.0402928 1.2242247,3.9935962 0.82626106,3.7792345 0.67063757,3.6055488 0.71726852,3.4272174 c 0.02095,-0.080081 0.0426875,-0.073262 0.34417028,0.1054199 0.1770018,0.1049008 0.3599358,0.2080663 0.4061767,0.2289266 0.04626,0.02087 0.1478903,0.076456 0.2258312,0.1235067 0.077941,0.04705 0.152133,0.074752 0.164853,0.062012 C 1.8957697,3.9096119 1.7071793,3.7304997 1.2903757,3.4080971 1.0756939,3.2420456 0.8996915,3.0816129 0.8996915,3.0510026 c 0,-0.05722 0.1166406,-0.3038523 0.1436605,-0.3038523 0.00832,0 0.1604488,0.1417698 0.3384807,0.3152211 0.1780218,0.1734613 0.3358265,0.3152366 0.3503765,0.3152366 0.014571,0 0.07003,0.05215 0.1229899,0.11575 0.096311,0.115631 0.09623,0.1157891 0.05426,-0.00206 C 1.8659384,3.3690554 1.6918975,3.1360739 1.4588357,2.8882218 1.2905839,2.7093204 1.242372,2.4929656 1.3379129,2.3471643 c 0.03781,-0.05772 0.082434,-0.1039312 0.099224,-0.1028412 0.03372,0.00215 0.2297497,0.2550948 0.5689523,0.733299 0.083111,0.1171406 0.1786546,0.1072803 0.1152436,-0.01188 -0.02097,-0.0394 -0.04838,-0.1001903 -0.06149,-0.1348807 -0.01313,-0.03469 -0.040113,-0.0914 -0.059433,-0.1260905 C 1.7588081,2.2711768 1.7175266,2.0796835 1.8386575,1.9585524 c 0.033005,-0.032988 0.06531,-0.054425 0.077995,-0.052441 0.00181,2.83e-4 0.00322,0.00105 0.00418,0.00232 0.00763,0.01019 0.1151332,0.2454334 0.2387451,0.5229655 0.1236209,0.2775323 0.297514,0.6614301 0.3865449,0.8526716 0.115481,0.2481019 0.1619689,0.4048006 0.1622589,0.5467418 5.9e-4,0.2940324 0.2942177,0.7811917 0.4227287,0.7017712 0.086521,-0.05347 0.4627755,-0.9046903 0.515736,-1.1663423 0.05249,-0.2593522 0.1236595,-0.3480662 0.16846,-0.210845 0.05143,0.1575311 0.2279224,0.4135828 0.315743,0.4578532 0.067388,0.033966 0.4653033,0.047394 0.8689548,0.044188 0.4036511,0.00321 0.8015669,-0.010222 0.8689547,-0.044188 0.087821,-0.04427 0.2643129,-0.3003221 0.3157431,-0.4578532 0.044801,-0.1372212 0.1159697,-0.048507 0.16846,0.210845 0.052961,0.261652 0.4292153,1.112872 0.515736,1.1663423 C 6.9974045,4.612002 7.2910321,4.1248427 7.2916221,3.8308103 7.2919121,3.6888691 7.3384002,3.5321704 7.4538809,3.2840685 7.5429119,3.092827 7.7168049,2.7089292 7.8404259,2.4313969 7.964037,2.1538648 8.0715409,1.9186215 8.079171,1.9084314 c 9.56e-4,-0.00127 0.00236,-0.00204 0.00418,-0.00232 0.012685,-0.00198 0.04499,0.019454 0.077995,0.052441 0.121131,0.1211311 0.07985,0.3126244 -0.1617524,0.7462181 -0.01932,0.03469 -0.046303,0.0914 -0.059433,0.1260905 -0.01311,0.03469 -0.04052,0.09548 -0.06149,0.1348807 -0.063411,0.1191607 0.032133,0.129021 0.1152436,0.01188 0.3392029,-0.4782042 0.5352322,-0.731149 0.5689523,-0.733299 0.01679,-0.00109 0.061414,0.045121 0.099224,0.1028412 C 8.7576315,2.4929652 8.7094185,2.70932 8.5411676,2.8882214 8.3081057,3.1360735 8.1340642,3.369055 8.090544,3.4912957 c -0.04197,0.117851 -0.042051,0.1176929 0.05426,0.00206 0.052961,-0.0636 0.1084198,-0.11575 0.1229899,-0.11575 0.01455,0 0.1723549,-0.1417753 0.3503766,-0.3152366 C 8.7962019,2.8889178 8.948331,2.747148 8.9566511,2.747148 c 0.02702,0 0.1436605,0.2466319 0.1436605,0.3038523 0,0.03061 -0.1760024,0.191043 -0.3906842,0.3570945 C 8.292824,3.7304974 8.1042332,3.9096096 8.1417034,3.94708 8.1544234,3.95982 8.2286154,3.932119 8.3065564,3.885068 8.384493,3.8380201 8.4861231,3.7824341 8.5323837,3.7615639 8.5786239,3.7407036 8.7615591,3.6375381 8.9385604,3.5326373 9.2400428,3.3539559 9.2617805,3.3471365 9.2827307,3.4272174 9.329361,3.6055488 9.1737377,3.7792345 8.7757745,3.9935962 8.6890872,4.0402928 8.6157555,4.0830164 8.5531421,4.1214696 8.4530945,4.1775834 8.3468202,4.237367 8.3432428,4.2395761 c -0.02315,0.01429 -0.04238,0.045093 -0.04238,0.068213 0,0.02313 0.019697,0.029384 0.04238,0.023503 0.017605,-0.00532 0.2198188,-0.082351 0.2748928,-0.1024744 0.064554,-0.022937 0.81748,-0.3403639 0.8403002,-0.3034338 0.016704,0.2298486 -0.2109436,0.4788889 -0.3470797,0.5444785 -0.035278,0.015258 -0.785777,0.3292333 -0.8146273,0.3640037 -0.069571,0.083821 -0.020479,0.1161279 0.088372,0.057867 C 8.435371,4.8648424 8.9469874,4.6745422 9.031578,4.658672 9.1161587,4.6428119 9.344584,4.5763932 9.3907345,4.5475729 9.5066555,4.4751821 9.526013,4.5120611 9.4692827,4.6969126 9.413752,4.877834 9.2899007,4.978935 9.0083185,5.0741557 8.8999976,5.1107961 8.7117671,5.1891782 8.5902561,5.2477885 c -0.121501,0.05862 -0.2374152,0.1064586 -0.2578654,0.1064586 -0.02047,0 -0.063668,0.026461 -0.096118,0.058911 -0.091901,0.091901 0.017949,0.1113643 0.2139404,0.037724 0.091421,-0.03434 0.2043702,-0.066932 0.2506307,-0.072342 0.04624,-0.00542 0.1120761,-0.021073 0.1467662,-0.034633 0.2778122,-0.1085609 0.4833316,-0.1538386 0.5219321,-0.1152385 0.05098,0.050981 -0.080639,0.3217342 -0.1829295,0.3762148 -0.123131,0.06558 -0.6050282,0.2118734 -0.6981589,0.2118734 -0.051171,0 -0.1151719,0.02687 -0.1426322,0.05995 -0.083721,0.100871 0.080344,0.1576295 0.3209158,0.1110993 0.4163934,-0.080531 0.520723,-0.084832 0.5441632,-0.023771 0.03178,0.082781 -0.1075626,0.2587766 -0.266144,0.3359071 -0.081951,0.03985 -0.3157244,0.075227 -0.5994466,0.091457 -0.2557219,0.01463 -0.4645711,0.038303 -0.4645711,0.052204 0,0.0139 0.1939095,0.060998 0.4309815,0.104898 0.2370617,0.0439 0.4450938,0.087702 0.462504,0.097152 0.057921,0.03144 -0.053339,0.1786316 -0.1875803,0.248052 -0.1006409,0.052031 -0.1836844,0.060852 -0.3457256,0.037202 -0.3086024,-0.04503 -0.4607826,-0.054789 -0.5002331,-0.032029 -0.04038,0.02329 0.1652047,0.1374489 0.2475353,0.1374489 0.084511,0 0.1160563,0.079983 0.058906,0.1488333 -0.064991,0.078311 -0.1936726,0.077829 -0.4201242,-0.00206 -0.2053118,-0.072441 -0.2529884,-0.055227 -0.1529676,0.055294 0.053421,0.059031 0.057595,0.08761 0.019115,0.1260905 C 7.4159291,7.4417017 7.3381691,7.4251543 7.1717276,7.2947231 7.087447,7.2286727 6.9385273,7.1244982 6.8404765,7.0632075 6.6622052,6.9517666 6.6619099,6.9513672 6.3986379,7.1396886 5.9211337,7.4812415 5.9543163,7.4452005 6.0513671,7.522611 6.0976071,7.559501 6.2235977,7.6346924 6.3314585,7.6900427 6.4886297,7.7707037 6.5234734,7.8077678 6.5056132,7.8760882 6.4770531,7.9851991 6.4513015,7.9831301 6.2234496,7.8559293 5.920917,7.6870278 5.8688245,7.7276742 6.1097666,7.944296 6.3254984,8.1382575 6.3677484,8.2377017 6.2740977,8.3313524 6.1915968,8.413853 6.1562081,8.3940144 5.8958261,8.1189623 5.6470039,7.8561503 5.6470214,7.856076 5.8276028,8.207329 6.0081946,8.5585816 6.0082154,8.5588548 5.8865243,8.6558856 5.7994236,8.7253361 5.7397835,8.7435166 5.6767128,8.7204863 5.5892522,8.688546 5.5600603,8.642166 5.419359,8.3184333 5.3261483,8.1039615 5.3040691,8.1662636 5.3521797,8.5096465 c 0.05058,0.3609828 0.012866,0.4046213 -0.3519165,0.4046213 -9e-5,0 -1.7e-4,-5.2e-6 -2.64e-4,-5.2e-6 v 1.0857323 c 9e-5,0 1.75e-4,5.1e-6 2.64e-4,5.1e-6 C 7.7614654,9.99984 9.9998396,7.7614658 9.9999996,5.0002636 10.000109,2.2388511 7.7616654,1.6862521e-4 5.0002632,0 c -9e-5,0 -1.76e-4,5.1665318e-6 -2.64e-4,5.1674444e-6 C 4.9999196,5.1674444e-6 4.9998412,0 4.9997412,0 Z M 4.0023808,4.3460296 c -0.269982,0.0016 -0.4935095,0.1251282 -0.6547507,0.3617402 -0.2577922,0.3782729 -0.1335266,0.9771254 0.2434063,1.172037 0.057901,0.02994 0.2092325,0.066871 0.3364136,0.08216 0.1974616,0.02375 0.2620921,0.012157 0.4418336,-0.078553 C 4.8690671,5.6312216 4.9991112,4.9926146 4.629738,4.6028615 4.4543667,4.4178201 4.2754432,4.3444396 4.0023808,4.3460296 Z m 1.9952428,0 C 5.7245611,4.3444396 5.5456377,4.4178201 5.3702664,4.6028615 5.0008935,4.9926146 5.1309368,5.6312216 5.6307208,5.8834138 c 0.1797414,0.090711 0.2443719,0.1023036 0.4418336,0.078553 0.1271811,-0.01529 0.278513,-0.05222 0.3364136,-0.08216 C 6.7859009,5.6848952 6.9101665,5.0860427 6.6523743,4.7077698 6.4911331,4.4711578 6.2676056,4.3476296 5.9976236,4.3460296 Z m 0.065769,0.5692081 c 0.027303,0.012712 0.043376,0.028426 0.089266,0.077267 0.1024909,0.1090909 0.095008,0.2228019 -0.022743,0.3405529 -0.07677,0.07676 -0.2838897,0.082891 -0.3400309,0.01034 -0.06536,-0.084464 -0.099939,-0.237869 -0.073323,-0.2644848 0.016407,-0.016407 0.065091,0.077702 0.1172535,0.07999 0.1126208,0.00497 0.1551017,-0.00263 0.1669719,-0.091281 0.00276,-0.020631 0.00623,-0.070638 -0.0016,-0.092045 -0.017441,-0.047681 -0.080004,-0.071454 -0.066686,-0.084333 0.00699,-0.00676 0.1147381,0.020323 0.1308946,0.023995 z M 4.9997361,5.7325238 c -0.05083,0 -0.1908265,0.3064349 -0.1700155,0.3720756 0.01382,0.04355 0.060343,0.111428 0.1033529,0.1503784 0.02974,0.02691 0.049017,0.04236 0.066926,0.044571 0.017908,-0.00221 0.037187,-0.017661 0.066926,-0.044571 0.04301,-0.03895 0.089533,-0.1068282 0.1033528,-0.1503784 0.02081,-0.065641 -0.1191851,-0.3720756 -0.1700154,-0.3720756 -7e-5,0 -1.95e-4,1.31e-4 -2.64e-4,1.34e-4 -7e-5,-3e-6 -1.58e-4,-1.34e-4 -2.58e-4,-1.34e-4 z m -1.805585,0.2945506 c -0.06782,0 -0.00615,0.1987849 0.1245402,0.4030865 0.2215018,0.3462426 0.6278868,0.6744961 1.0294101,0.8309673 0.1180738,0.046015 0.4042331,0.08342 0.6518982,0.095028 1.7e-6,1e-7 3.5e-6,0 5.2e-6,0 C 5.2476701,7.3445487 5.5338292,7.3071435 5.651903,7.2611282 6.0534263,7.104657 6.4598113,6.7764035 6.6813131,6.4301609 6.8120042,6.2258593 6.8736737,6.0270744 6.8058533,6.0270744 c -0.01307,0 -0.1315323,0.049562 -0.2630434,0.1105927 C 6.2331774,6.2813684 5.9767764,6.306302 5.682914,6.2208713 5.5545629,6.1835612 5.4296515,6.15317 5.4054116,6.15317 c -0.02424,0 -0.1050936,0.08962 -0.1798444,0.1994814 -0.1069995,0.1572476 -0.1674738,0.2370842 -0.2255624,0.2407863 -1.7e-6,-1e-7 -3.5e-6,1e-7 -5.2e-6,0 C 4.9419112,6.5897356 4.8814364,6.509899 4.7744372,6.3526514 4.6996864,6.2427905 4.6188331,6.15317 4.5945928,6.15317 c -0.02424,0 -0.1491513,0.030391 -0.2775024,0.067701 C 4.023228,6.306302 3.766827,6.2813684 3.4571945,6.1376671 3.3256834,6.0766367 3.2072213,6.0270744 3.1941511,6.0270744 Z M 4.1306726,4.9152377 c 0.027303,0.012712 0.043376,0.028426 0.089266,0.077267 0.1024909,0.1090909 0.095008,0.2228019 -0.022743,0.3405529 -0.07677,0.07676 -0.2838898,0.082891 -0.340031,0.01034 -0.06536,-0.084464 -0.099939,-0.237869 -0.073323,-0.2644848 0.016407,-0.016407 0.065091,0.077702 0.1172536,0.07999 0.1126206,0.00497 0.1551017,-0.00263 0.1669718,-0.091281 0.00276,-0.020631 0.00623,-0.070638 -0.0016,-0.092045 -0.017441,-0.047681 -0.080004,-0.071454 -0.066686,-0.084333 0.00699,-0.00676 0.1147381,0.020323 0.1308946,0.023995 z"
       sodipodi:nodetypes="scsccscccsccsccccccccscccscccscscccccssscccsscccscccccccsscccccsccsscsccccccccccsccccscccccscsccccsccccccccccscssccsscccccscccccccscccsscccsssccscsscscccsccssccccccccsccscccsccccssssccsccccccccccccccssccsscscccccscsssccscccsccscsccsccscccsscsssc" />
  </g>
</svg>
