<?xml version="1.0" encoding="UTF-8" standalone="no"?>
<!-- Created with Inkscape (http://www.inkscape.org/) -->

<svg
   width="10mm"
   height="10mm"
   viewBox="0 0 10 10"
   version="1.1"
   id="svg18964"
   inkscape:version="1.2.1 (9c6d41e410, 2022-07-14)"
   sodipodi:docname="no-smoking.svg"
   xmlns:inkscape="http://www.inkscape.org/namespaces/inkscape"
   xmlns:sodipodi="http://sodipodi.sourceforge.net/DTD/sodipodi-0.dtd"
   xmlns="http://www.w3.org/2000/svg"
   xmlns:svg="http://www.w3.org/2000/svg">
  <sodipodi:namedview
     id="namedview18966"
     pagecolor="#505050"
     bordercolor="#ffffff"
     borderopacity="1"
     inkscape:pageshadow="0"
     inkscape:pageopacity="0"
     inkscape:pagecheckerboard="1"
     inkscape:document-units="mm"
     showgrid="false"
     inkscape:zoom="22.627417"
     inkscape:cx="34.913397"
     inkscape:cy="12.042912"
     inkscape:window-width="2560"
     inkscape:window-height="1361"
     inkscape:window-x="-9"
     inkscape:window-y="464"
     inkscape:window-maximized="1"
     inkscape:current-layer="layer1"
     inkscape:showpageshadow="0"
     inkscape:deskcolor="#505050" />
  <defs
     id="defs18961" />
  <g
     inkscape:label="Layer 1"
     inkscape:groupmode="layer"
     id="layer1">
    <path
       id="circle60610"
       style="color:#000000;fill:#ffffff;stroke-width:0.999999;-inkscape-stroke:none"
       d="M 5.0002116,0 C 2.2439843,-1.2084988e-8 0,2.2439843 0,5.0002116 c 6.042464e-8,2.7562172 2.2439843,4.9996948 5.0002116,4.9996948 2.7562172,0 4.9996948,-2.2434776 4.9996948,-4.9996948 C 9.9999064,2.2439843 7.7564288,0 5.0002116,0 Z m 0,0.87694906 c 2.2821477,0 4.1227458,1.84110484 4.1227458,4.12326254 0,1.1440988 -0.4628331,2.1768697 -1.2118124,2.922819 L 6.3133097,6.3251953 H 7.1959432 V 5.1552409 H 5.1433553 L 2.0768758,2.0887614 C 2.8228351,1.3397621 3.8560927,0.87694906 5.0002116,0.87694906 Z M 5.3769328,1.5358236 c -0.3255597,0 -0.8136938,0.2892655 -0.8139038,0.8728149 0,0.3902996 0.2808669,0.7290368 0.6872965,0.8294067 0.1258499,0.03106 0.1276408,0.029163 0.1276408,0.1033529 0,0.0386 -0.0031,0.058035 -0.0031,0.096635 0,0.4154496 0.268879,0.5797343 0.5048788,0.6924642 l 0.5606893,0.00827 c 0.5935894,0.00896 0.6388195,0.014316 0.7555094,0.083716 0.06746,0.0401 0.1319584,0.1325508 0.1503784,0.2154907 0.00868,0.03911 0.01602,0.1659267 0.01602,0.2816366 0,0.1156998 0.00442,0.2144248 0.00982,0.2196248 0.00538,0.00522 0.071638,0.0093 0.1472779,0.0093 H 7.656897 V 4.6958374 C 7.656897,4.4209077 7.642365,4.3358447 7.574215,4.2059448 7.5232747,4.1088849 7.404003,3.9959826 7.3013631,3.9475627 7.1307833,3.8670927 7.1033825,3.8638051 6.5076131,3.8545451 5.8982337,3.8450651 5.8972465,3.8450957 5.8027466,3.7522257 5.7185967,3.6695258 5.6740723,3.551355 5.6740723,3.4313151 c 0,-0.1531998 0.080615,-0.2451713 0.080615,-0.3064412 0,-0.2721398 -0.7547142,0.045486 -0.885734,-0.6351034 -0.0055,-0.02854 -0.00827,-0.05781 -0.00827,-0.08785 0,-0.3071697 0.2806819,-0.5694743 0.4676717,-0.5694743 0.09339,0 0.1023194,-0.034016 0.1023194,-0.085266 v -0.084233 c 0,-0.09951 -0.00457,-0.127124 -0.053744,-0.127124 z m 0.4449341,0.2847371 c -0.00877,0 -0.01762,3.109e-4 -0.08785,0.00465 V 2.093929 c 0,1e-5 0.7064369,0.046659 0.7064169,0.6454387 -0.00146,0.3535096 -0.1803508,0.4649891 -0.1803508,0.576709 0,0.1183398 0.070296,0.1384928 0.3999756,0.1384928 0.3483896,0 0.4688244,0.018882 0.6397542,0.1002523 0.2155898,0.1026199 0.3850324,0.2996436 0.4707723,0.5472534 0.03751,0.1083599 0.039932,0.129755 0.044442,0.4480347 0.0026,0.1839198 0.011885,0.3922241 0.011885,0.3922241 0,0 0.013833,0.0062 0.1560629,0.0062 H 8.1318034 L 8.1245687,4.589384 C 8.1182787,4.2603143 8.1145502,4.218523 8.0796102,4.0912231 7.9495203,3.6174036 7.5852975,3.2773328 7.115328,3.1905029 c -0.06029,-0.01113 -0.1812843,-0.02067 -0.2692343,-0.02067 -0.1378098,0 -0.1689819,-0.00729 -0.1689819,-0.018604 0,-0.07724 0.07183,-0.1542631 0.07183,-0.3860229 0,-0.6348494 -0.5882456,-0.9446452 -0.9270749,-0.9446453 z m -4.4364218,1.1901082 2.144572,2.144572 H 1.6298747 v 1.1699544 h 3.0700968 l 2.289266,2.289266 C 6.3998581,8.9386809 5.7222509,9.1229574 5.0002116,9.1229574 c -2.2821577,0 -4.12326254,-1.8405981 -4.12326254,-4.1227458 0,-0.7220493 0.18427644,-1.4001732 0.50849604,-1.9895427 z m 5.9768962,2.144572 V 6.3251953 H 8.128186 V 5.1552409 Z"
       sodipodi:nodetypes="sssssssccccccssccssccccscscscscssscsssssscscsscccccccccssssccccccssccccccc" />
  </g>
</svg>
