<?xml version="1.0" encoding="UTF-8" standalone="no"?>
<!-- Created with Inkscape (http://www.inkscape.org/) -->

<svg
   width="10mm"
   height="10mm"
   viewBox="0 0 10 10"
   version="1.1"
   id="svg5"
   inkscape:version="1.1.2 (0a00cf5339, 2022-02-04, custom)"
   sodipodi:docname="railway.svg"
   xmlns:inkscape="http://www.inkscape.org/namespaces/inkscape"
   xmlns:sodipodi="http://sodipodi.sourceforge.net/DTD/sodipodi-0.dtd"
   xmlns="http://www.w3.org/2000/svg"
   xmlns:svg="http://www.w3.org/2000/svg">
  <sodipodi:namedview
     id="namedview7"
     pagecolor="#505050"
     bordercolor="#ffffff"
     borderopacity="1"
     inkscape:pageshadow="0"
     inkscape:pageopacity="0"
     inkscape:pagecheckerboard="1"
     inkscape:document-units="mm"
     showgrid="false"
     inkscape:zoom="22.627417"
     inkscape:cx="19.467534"
     inkscape:cy="21.633048"
     inkscape:window-width="2560"
     inkscape:window-height="1361"
     inkscape:window-x="-9"
     inkscape:window-y="-9"
     inkscape:window-maximized="1"
     inkscape:current-layer="layer1" />
  <defs
     id="defs2" />
  <g
     inkscape:label="Layer 1"
     inkscape:groupmode="layer"
     id="layer1">
    <path
       id="path974"
       style="fill:#000000;stroke-width:0.054570508333"
       d="M 4.99917 0 C 4.5976 0 4.19603 0.027759 3.94756 0.0831989 C 2.41686 0.424734 1.04519 1.54428 0.417028 2.96519 C -0.20933 4.38203 -0.126191 6.06113 0.639753 7.4569 C 0.979099 8.07528 1.84876 8.95871 2.46651 9.31311 C 2.99036 9.61364 3.75945 9.88469 4.28707 9.95442 C 5.42121 10.1043 6.54011 9.88303 7.53183 9.3126 C 8.12268 8.97275 8.97588 8.12277 9.30691 7.54475 C 10.1222 6.12125 10.2243 4.4196 9.58132 2.96519 C 8.95315 1.54428 7.58148 0.424734 6.05079 0.0831989 C 5.80231 0.027759 5.40075 0 4.99917 0 Z M 4.99917 0.229443 C 5.8051 0.229443 6.61076 0.426176 7.30859 0.819587 C 10.1354 2.41327 10.614 6.21193 8.26925 8.4465 C 7.63472 9.05122 6.82587 9.4833 6.01151 9.65315 C 5.49144 9.76162 4.45789 9.75957 3.94807 9.64901 C 3.52069 9.55633 2.87223 9.28426 2.42879 9.01184 C 2.02966 8.76664 1.38355 8.14426 1.09554 7.72768 C -0.523603 5.38577 0.206996 2.219 2.68924 0.819587 C 3.38706 0.426176 4.19324 0.229443 4.99917 0.229443 Z M 5.58467 0.516764 C 5.51404 0.520141 5.44326 0.553231 5.34127 0.617016 C 5.1211 0.754711 5.02082 1.04505 5.10407 1.30379 C 5.17146 1.51322 5.35041 1.70414 5.51077 1.73788 C 5.64843 1.76683 5.88968 1.68563 5.97327 1.58233 C 6.07483 1.45682 5.9953 1.43306 5.80739 1.53272 C 5.64711 1.61773 5.6291 1.61728 5.53299 1.52807 C 5.40394 1.40829 5.3943 1.02922 5.51594 0.85111 C 5.66321 0.63545 5.85572 0.733343 5.98774 1.09089 C 6.02113 1.18132 6.06488 1.10418 6.10505 0.883666 C 6.13499 0.719235 6.12615 0.676444 6.06215 0.676444 C 6.01779 0.676444 5.91191 0.639169 5.82703 0.593761 C 5.72594 0.539689 5.65529 0.513386 5.58467 0.516764 Z M 4.48034 0.566373 C 4.39521 0.566788 4.27136 0.581834 4.20542 0.599963 C 4.08643 0.63268 4.08659 0.634024 4.19302 0.723986 C 4.34014 0.848342 4.45488 1.41271 4.36355 1.56269 C 4.30226 1.66337 4.31256 1.67121 4.51083 1.67121 L 4.72425 1.67121 L 4.64932 1.48673 C 4.53258 1.20017 4.48832 0.747129 4.56767 0.649055 C 4.62505 0.578147 4.61215 0.565725 4.48034 0.566373 Z M 3.51399 0.792715 C 3.47644 0.795722 3.42421 0.810434 3.35896 0.83664 C 3.28205 0.867531 3.27294 0.88946 3.32331 0.92139 C 3.39484 0.966731 3.6153 1.45068 3.58066 1.48621 C 3.56964 1.49751 3.37126 1.41816 3.13986 1.31 C 2.85066 1.17483 2.70162 1.13127 2.6634 1.17047 C 2.62518 1.20967 2.64271 1.2664 2.71869 1.35237 C 2.92631 1.5873 3.12619 2.00029 3.10007 2.14044 C 3.07396 2.28051 3.07767 2.28057 3.32124 2.1208 C 3.44631 2.03876 3.44631 2.0366 3.33726 1.99522 C 3.22981 1.95446 3.02614 1.63118 3.07578 1.58026 C 3.08929 1.56641 3.25991 1.63606 3.45508 1.73478 C 3.65026 1.83349 3.82551 1.89813 3.8442 1.87895 C 3.8629 1.85977 3.80347 1.64496 3.71191 1.40146 C 3.62036 1.15796 3.55985 0.92014 3.57755 0.872814 C 3.59933 0.814618 3.57658 0.787705 3.51399 0.792715 Z M 6.61561 0.845942 C 6.58264 0.849014 6.57729 0.875582 6.59597 0.925524 C 6.63552 1.03123 6.35736 1.70983 6.25852 1.74873 C 6.14232 1.79447 6.17144 1.86518 6.33294 1.93063 C 6.54454 2.01639 6.54821 2.01579 6.54895 1.87844 C 6.54974 1.72924 6.79452 1.14816 6.87916 1.09451 C 6.97407 1.03434 6.94965 0.975572 6.80164 0.906403 C 6.70943 0.863312 6.64858 0.84287 6.61561 0.845942 Z M 7.41401 1.23455 C 7.38737 1.23569 7.3932 1.2687 7.43313 1.33428 C 7.48775 1.42398 7.46674 1.486 7.29205 1.74614 C 7.16039 1.94221 7.02673 2.07333 6.91998 2.1115 L 6.75307 2.17144 L 6.92102 2.27583 C 7.01329 2.33338 7.10482 2.4073 7.12462 2.44016 C 7.18781 2.54502 7.27065 2.50481 7.23417 2.38693 C 7.21491 2.32468 7.22693 2.23984 7.26053 2.19831 C 7.31212 2.13456 7.34443 2.13467 7.46723 2.20038 C 7.76359 2.35896 8.12456 2.22425 8.12456 1.95492 C 8.12456 1.81739 7.94018 1.58443 7.67652 1.38854 C 7.53636 1.28441 7.44826 1.23308 7.41401 1.23455 Z M 2.17661 1.52187 C 2.15842 1.52506 2.12428 1.55584 2.06085 1.61695 C 1.92613 1.74677 1.92613 1.74913 2.03553 1.80919 C 2.15411 1.87428 2.57452 2.37166 2.57452 2.44688 C 2.57452 2.49524 2.42227 2.66598 2.37918 2.66598 C 2.28564 2.66598 2.02277 2.47172 1.84795 2.27324 L 1.64176 2.03863 L 1.50585 2.20038 L 1.36994 2.36161 L 1.50327 2.37815 C 1.57654 2.38717 1.74436 2.49182 1.87637 2.61069 C 2.16955 2.87469 2.40248 2.90209 2.60346 2.69596 C 2.6762 2.62135 2.73547 2.5154 2.73471 2.46083 C 2.73396 2.40625 2.61239 2.21323 2.46496 2.0314 C 2.31753 1.84957 2.19728 1.65222 2.19728 1.59318 C 2.19728 1.54319 2.1948 1.51868 2.17661 1.52187 Z M 7.7313 1.6247 C 7.83094 1.63286 7.87897 1.85293 7.80365 1.99729 C 7.73256 2.13354 7.57317 2.14848 7.4755 2.02778 C 7.41818 1.95694 7.4252 1.91653 7.51529 1.79265 C 7.57506 1.71047 7.66297 1.63536 7.71063 1.62574 C 7.71771 1.62431 7.72466 1.62416 7.7313 1.6247 Z M 4.99917 1.91513 C 4.64516 1.91513 4.29094 1.9513 4.08295 2.02365 C 2.74439 2.48926 1.91099 3.62619 1.91099 4.98677 C 1.91099 5.82602 2.20135 6.538 2.79001 7.14271 C 3.18304 7.54645 3.73049 7.87141 4.22558 7.99433 C 4.64525 8.09853 5.32288 8.09969 5.74796 7.99692 C 6.79399 7.74402 7.68982 6.86376 7.99123 5.79292 C 8.11182 5.3645 8.11182 4.60956 7.99123 4.18113 C 7.7052 3.16495 6.95494 2.38542 5.91488 2.02365 C 5.70688 1.9513 5.35319 1.91513 4.99917 1.91513 Z M 5.03328 2.12338 C 5.41464 2.12515 5.79775 2.20879 6.15724 2.38641 L 6.48073 2.54609 L 5.89317 2.55075 C 5.32746 2.55508 5.30916 2.55886 5.39501 2.65617 C 5.47482 2.74661 5.4839 2.98656 5.4839 4.93768 C 5.4839 6.82146 5.47266 7.13425 5.40018 7.24038 L 5.31646 7.36337 L 5.77897 7.36337 L 6.24147 7.36337 L 6.119 7.19335 C 6.00263 7.03209 5.99527 6.96612 5.97947 5.9495 L 5.96242 4.8767 L 6.12882 4.8767 C 6.22012 4.8767 6.38522 4.93595 6.49572 5.00899 C 6.67847 5.12978 6.93914 5.24133 6.93859 5.19813 C 6.93846 5.18848 6.87768 5.05827 6.80371 4.90874 C 6.72975 4.7592 6.66935 4.54148 6.66935 4.42505 C 6.66935 4.30861 6.64938 4.21317 6.62491 4.21317 C 6.55906 4.21317 6.34637 4.45871 6.34637 4.5346 C 6.34637 4.57064 6.27354 4.60023 6.18463 4.60023 L 6.02288 4.60023 L 6.02288 3.68814 L 6.02288 2.77657 L 6.16034 2.77657 C 6.33209 2.77657 6.59716 2.91116 6.79079 3.09696 C 6.96876 3.26774 6.97708 3.2358 6.82438 2.97036 C 6.64698 2.66198 6.7385 2.68303 7.06726 3.02565 C 7.62043 3.60215 7.8923 4.36026 7.84034 5.18056 C 7.80683 5.70958 7.65762 6.14341 7.35096 6.60269 C 7.08619 6.99082 6.87248 7.16344 6.7386 7.26621 C 6.72588 7.27565 6.71212 7.28478 6.69881 7.29412 C 6.69884 7.29396 6.69878 7.29376 6.69881 7.2936 C 6.72025 7.1794 6.5649 7.10243 6.4828 7.18663 C 6.45122 7.21902 6.44037 7.28609 6.45903 7.33598 C 6.47244 7.37183 6.4987 7.39405 6.52879 7.40316 C 6.41655 7.46998 6.30689 7.52807 6.23837 7.56387 C 6.10501 7.63354 5.83328 7.72888 5.63479 7.77574 C 4.99222 7.92745 4.3461 7.85224 3.73155 7.55405 C 3.44368 7.41437 3.30939 7.2532 3.55792 7.3458 C 3.6246 7.37064 3.83834 7.39127 4.03334 7.39127 C 4.33321 7.39127 4.41685 7.36846 4.57388 7.24554 C 4.85808 7.02307 5.06334 6.58907 5.09426 6.14587 C 5.13223 5.6015 4.97777 5.2909 4.32531 4.60023 C 3.7403 3.98095 3.50892 3.56682 3.56774 3.24528 C 3.61322 2.99661 3.82301 2.83186 4.0938 2.83186 C 4.35697 2.83186 4.47782 2.89377 4.77645 3.18326 C 4.90604 3.3089 4.9989 3.37459 4.98264 3.32899 C 4.96638 3.2834 4.92207 3.10152 4.88393 2.92488 C 4.82588 2.65602 4.79841 2.60794 4.71495 2.63033 C 4.66012 2.64503 4.53268 2.6219 4.43177 2.57865 C 4.14368 2.45519 3.81658 2.48061 3.4866 2.65203 C 3.10929 2.84805 2.95353 3.11333 2.95227 3.56257 C 2.95094 4.03596 3.09179 4.26628 3.76824 4.89995 C 4.5131 5.59771 4.66802 5.87704 4.57491 6.35258 C 4.54128 6.5243 4.47746 6.72192 4.4328 6.79182 C 4.21961 7.12554 3.70757 7.17276 3.34811 6.89156 L 3.15071 6.73705 L 3.18843 6.89828 C 3.2091 6.98689 3.23983 7.10666 3.25664 7.16441 C 3.28474 7.26088 3.27336 7.2594 3.11712 7.14529 C 2.91968 7.00109 2.58263 6.55378 2.41845 6.21822 C 2.14605 5.66144 2.07053 4.90947 2.2257 4.29844 C 2.55931 2.98478 3.78751 2.1176 5.03328 2.12338 Z M 8.64649 2.34456 C 8.63028 2.3444 8.61272 2.3651 8.58499 2.40398 C 8.50936 2.51007 7.72404 2.74009 7.57214 2.70061 C 7.45063 2.66902 7.45324 2.69139 7.59436 2.88716 C 7.70071 3.0347 7.71657 3.04075 7.77781 2.95485 C 7.84067 2.86668 7.85217 2.86729 7.95764 2.96519 C 8.10061 3.09788 8.10087 3.16311 7.95816 3.16311 C 7.89642 3.16311 7.85483 3.18165 7.86566 3.20445 C 7.87649 3.22725 7.91886 3.31465 7.95971 3.39824 C 8.00056 3.48183 8.04818 3.54941 8.06565 3.54862 C 8.08312 3.54783 8.1395 3.4546 8.1907 3.34139 C 8.24191 3.22819 8.39701 3.01693 8.53539 2.87166 C 8.77212 2.62312 8.78301 2.59869 8.72039 2.45773 C 8.68592 2.38013 8.66733 2.34476 8.64649 2.34456 Z M 1.18442 2.67374 C 1.14391 2.67703 1.0874 2.73689 1.07539 2.8205 C 1.0652 2.89139 1.13566 3.04286 1.25057 3.19722 C 1.35625 3.33918 1.4428 3.47447 1.4428 3.49797 C 1.4428 3.53908 0.9792 3.66075 0.822171 3.66075 C 0.759621 3.66075 0.634586 3.81642 0.634586 3.89433 C 0.634586 3.90541 0.717778 3.90497 0.819587 3.89278 C 1.03267 3.86727 1.51084 4.01461 1.6092 4.13618 C 1.66278 4.20239 1.6842 4.20458 1.71979 4.14703 C 1.7949 4.02558 1.77074 3.93671 1.66243 3.93671 C 1.60558 3.93671 1.51904 3.92099 1.46968 3.90157 C 1.33936 3.85028 1.47573 3.77295 1.6986 3.77186 C 1.91131 3.77083 1.91563 3.73901 1.72909 3.53931 C 1.6186 3.42103 1.60478 3.38429 1.67121 3.38429 C 1.7191 3.38429 1.79394 3.42114 1.83761 3.46593 C 1.90756 3.53768 1.92765 3.53091 2.00349 3.41219 C 2.11735 3.23396 2.11319 3.2184 1.95388 3.2184 C 1.7879 3.2184 1.22731 2.84641 1.22731 2.73626 C 1.22731 2.69011 1.20873 2.67176 1.18442 2.67374 Z M 8.35504 2.69957 C 8.44266 2.70455 8.43279 2.75509 8.33953 2.87321 C 8.19924 3.0509 8.0703 3.02973 8.0703 2.82876 C 8.0703 2.7651 8.12477 2.72541 8.23463 2.70888 C 8.28597 2.70115 8.32583 2.69791 8.35504 2.69957 Z M 9.12398 3.27473 C 9.10577 3.27671 9.09401 3.30367 9.09401 3.35896 C 9.09401 3.47457 8.57901 3.71486 8.3292 3.71553 L 8.12973 3.71605 L 8.20776 3.90777 C 8.2507 4.01318 8.28579 4.14985 8.28579 4.21162 C 8.28579 4.30461 8.32055 4.32399 8.48784 4.32376 L 8.6899 4.32324 L 8.52867 4.18889 C 8.3861 4.0706 8.37625 4.04559 8.44754 3.9765 C 8.56934 3.85844 9.13546 3.64383 9.22837 3.68039 C 9.3267 3.71909 9.32837 3.6939 9.2449 3.45715 C 9.20274 3.33757 9.15433 3.27143 9.12398 3.27473 Z M 1.06557 4.8214 C 0.89337 4.8214 0.8636 4.86841 0.968415 4.97592 C 1.00398 5.01239 1.04779 5.04206 1.06557 5.04206 C 1.11274 5.04206 1.22731 4.91694 1.22731 4.86533 C 1.22731 4.84101 1.15447 4.8214 1.06557 4.8214 Z M 8.96792 4.93148 C 8.86596 4.93148 8.83674 4.95413 8.8594 5.01467 C 8.87646 5.06027 8.90891 5.09736 8.93174 5.09736 C 8.95458 5.09736 9.00337 5.06027 9.04026 5.01467 C 9.09695 4.94461 9.08591 4.93148 8.96792 4.93148 Z M 8.34728 5.34644 L 8.34315 5.5118 C 8.34066 5.60299 8.32381 5.73383 8.30594 5.80222 C 8.28197 5.89398 8.29637 5.92625 8.36124 5.92625 C 8.45193 5.92625 8.67611 6.24718 8.63409 6.31692 C 8.57856 6.40907 8.32473 6.42702 8.23618 6.34482 C 8.1526 6.26725 8.13512 6.28067 8.02689 6.50916 C 7.96197 6.64622 7.90855 6.7732 7.90855 6.79131 C 7.90855 6.80941 7.9392 6.79957 7.97625 6.7696 C 8.01329 6.73964 8.22147 6.6713 8.43875 6.61768 C 8.83205 6.5206 8.83405 6.52076 8.99117 6.6399 L 9.1493 6.75979 L 9.20253 6.61561 C 9.26861 6.43735 9.2708 6.35269 9.20821 6.39237 C 9.18198 6.40899 9.08562 6.39609 8.99427 6.36343 C 8.82119 6.30154 8.55373 5.91961 8.41756 5.54074 L 8.34728 5.34644 Z M 1.65519 5.77018 C 1.64924 5.7693 1.64427 5.7731 1.64072 5.78259 C 1.59647 5.90087 1.04109 6.05584 0.786514 6.02081 C 0.608962 5.99639 0.58067 6.00575 0.603063 6.08334 C 0.617625 6.1338 0.645119 6.24366 0.664558 6.32725 C 0.706111 6.50595 0.772117 6.52438 0.811836 6.3686 C 0.84565 6.23597 1.03962 6.21989 1.08675 6.34586 C 1.10484 6.39421 1.0712 6.50373 1.01182 6.58925 C 0.902573 6.74662 0.871933 6.92557 0.94206 6.9975 C 0.963143 7.01912 1.00069 6.98086 1.02526 6.91275 C 1.10907 6.68037 1.16484 6.64688 1.32447 6.73188 C 1.56796 6.86155 1.87545 6.69151 1.87223 6.42906 C 1.86985 6.23472 1.71273 5.77874 1.65519 5.77018 Z M 1.53479 6.06267 C 1.5765 6.05975 1.60669 6.07125 1.63607 6.09626 C 1.72912 6.17546 1.73527 6.37825 1.64744 6.46833 C 1.52675 6.59212 1.34282 6.54488 1.25315 6.36705 L 1.16892 6.1991 L 1.36426 6.11538 C 1.43976 6.08302 1.49308 6.06559 1.53479 6.06267 Z M 7.67136 7.11635 C 7.64661 7.119 7.60011 7.15727 7.52563 7.23366 C 7.35911 7.40445 7.35819 7.40667 7.46258 7.51374 C 7.58994 7.64437 7.76524 8.32255 7.71425 8.48733 C 7.67945 8.59978 7.68684 8.59886 7.85791 8.46356 C 8.06386 8.30066 8.11829 8.19225 7.99433 8.19225 C 7.8697 8.19225 7.88825 8.13644 8.08115 7.93232 C 8.26965 7.73285 8.34005 7.70598 8.34005 7.8331 C 8.34005 7.9562 8.39604 7.93562 8.59326 7.73957 C 8.80613 7.52796 8.81992 7.45781 8.63409 7.53028 C 8.52464 7.57296 8.41606 7.54857 8.0951 7.41039 C 7.83415 7.29804 7.69306 7.20657 7.69306 7.14943 C 7.69306 7.126 7.6862 7.11476 7.67136 7.11635 Z M 4.97127 7.15098 C 4.93891 7.14959 4.90597 7.16032 4.88032 7.18663 C 4.84873 7.21902 4.8384 7.28609 4.85706 7.33598 C 4.9002 7.45127 5.07295 7.42082 5.09684 7.2936 C 5.11158 7.21508 5.04246 7.15402 4.97127 7.15098 Z M 2.389 7.18405 C 2.36398 7.18239 2.34682 7.20448 2.32182 7.24554 C 2.24423 7.37298 1.68073 7.50105 1.41903 7.4507 C 1.31343 7.43038 1.22731 7.42246 1.22731 7.43313 C 1.22731 7.4438 1.28492 7.53297 1.35547 7.63105 C 1.4546 7.76885 1.49118 7.79003 1.51567 7.72458 C 1.56901 7.58201 1.68589 7.62896 1.87379 7.86876 C 2.03731 8.07746 2.04491 8.10383 1.96215 8.1659 C 1.88014 8.22741 1.88983 8.25083 2.06292 8.40671 C 2.16834 8.50165 2.26127 8.57931 2.26911 8.57931 C 2.27695 8.57931 2.27575 8.49826 2.26653 8.39948 C 2.24426 8.16086 2.4613 7.63169 2.61327 7.55405 L 2.73316 7.49307 L 2.55798 7.31892 C 2.4662 7.22769 2.42116 7.18618 2.389 7.18405 Z M 2.15801 7.48997 C 2.27284 7.48288 2.28751 7.57715 2.19521 7.75404 C 2.12451 7.88954 2.07642 7.88833 1.95337 7.74887 C 1.84115 7.62169 1.8807 7.55551 2.10271 7.49927 C 2.12319 7.49409 2.1416 7.49099 2.15801 7.48997 Z M 7.722 7.53338 C 7.74313 7.53114 7.77856 7.53867 7.8331 7.5525 C 8.06353 7.61092 8.10404 7.67573 7.99072 7.80417 C 7.88036 7.92923 7.74741 7.95262 7.74629 7.84706 C 7.74588 7.80906 7.73016 7.71839 7.71115 7.64552 C 7.69107 7.56858 7.68678 7.53712 7.722 7.53338 Z M 6.91171 7.77109 L 6.73756 7.876 C 6.58362 7.96888 6.5729 7.99064 6.64351 8.06306 C 6.73038 8.15215 6.75471 8.57931 6.67297 8.57931 C 6.64535 8.57931 6.57096 8.50468 6.5076 8.41343 C 6.44425 8.32218 6.34654 8.22246 6.29056 8.19174 C 6.19863 8.14127 6.18256 8.168 6.1221 8.46821 C 6.08529 8.65097 6.03652 8.80049 6.01358 8.80049 C 5.93825 8.80049 5.79717 8.45826 5.82599 8.34522 C 5.85181 8.24396 5.83564 8.23769 5.63376 8.2708 C 5.33575 8.31968 5.28945 8.35871 5.43894 8.43462 C 5.50824 8.46981 5.6348 8.63499 5.72006 8.80152 C 5.80532 8.96805 5.9095 9.1617 5.95208 9.23198 C 6.06505 9.41843 6.14951 9.35416 6.21098 9.03458 C 6.2408 8.87957 6.28307 8.73523 6.30452 8.71367 C 6.32596 8.69211 6.4409 8.76477 6.56031 8.87542 C 6.90243 9.19242 6.9201 9.17038 6.91585 8.42376 L 6.91171 7.77109 Z M 3.25613 7.93077 C 3.23178 7.93372 3.22099 7.95436 3.22099 7.99433 C 3.22099 8.10333 2.98828 8.49651 2.80448 8.69868 L 2.67063 8.84596 L 2.82463 8.93174 C 3.00433 9.03161 3.13502 9.04683 3.08405 8.96223 C 3.02958 8.87184 3.38049 8.18266 3.49694 8.15143 C 3.62393 8.11737 3.62724 8.04835 3.50366 8.0119 C 3.45179 7.99661 3.3669 7.96611 3.31504 7.94421 C 3.28989 7.93359 3.27074 7.92901 3.25613 7.93077 Z M 4.21214 8.27752 C 4.18382 8.28423 4.16293 8.40413 4.16201 8.57363 C 4.16093 8.77582 4.12104 8.96753 4.04781 9.11933 L 3.93464 9.35342 L 4.1031 9.40355 C 4.19575 9.4311 4.40838 9.45558 4.57543 9.45833 C 4.8714 9.46318 4.87946 9.45944 4.90202 9.30175 C 4.92393 9.14861 4.91968 9.14386 4.81572 9.21855 C 4.69307 9.30666 4.29844 9.32727 4.29844 9.24542 C 4.29844 9.09399 4.42727 8.59072 4.49326 8.48371 C 4.56428 8.36854 4.55941 8.35839 4.4204 8.32713 C 4.33863 8.30874 4.24746 8.28679 4.21783 8.27804 C 4.21587 8.27746 4.21403 8.27707 4.21214 8.27752 Z" />
  </g>
</svg>
