<?xml version="1.0" encoding="UTF-8" standalone="no"?>
<!-- Created with Inkscape (http://www.inkscape.org/) -->

<svg
   width="10mm"
   height="10mm"
   viewBox="0 0 10 10"
   version="1.1"
   id="svg5"
   inkscape:version="1.1.2 (0a00cf5339, 2022-02-04, custom)"
   sodipodi:docname="railway_2.svg"
   xmlns:inkscape="http://www.inkscape.org/namespaces/inkscape"
   xmlns:sodipodi="http://sodipodi.sourceforge.net/DTD/sodipodi-0.dtd"
   xmlns="http://www.w3.org/2000/svg"
   xmlns:svg="http://www.w3.org/2000/svg">
  <sodipodi:namedview
     id="namedview7"
     pagecolor="#505050"
     bordercolor="#ffffff"
     borderopacity="1"
     inkscape:pageshadow="0"
     inkscape:pageopacity="0"
     inkscape:pagecheckerboard="1"
     inkscape:document-units="mm"
     showgrid="false"
     inkscape:zoom="16"
     inkscape:cx="27.53125"
     inkscape:cy="24.53125"
     inkscape:window-width="2560"
     inkscape:window-height="1361"
     inkscape:window-x="-9"
     inkscape:window-y="-9"
     inkscape:window-maximized="1"
     inkscape:current-layer="layer1" />
  <defs
     id="defs2" />
  <g
     inkscape:label="Layer 1"
     inkscape:groupmode="layer"
     id="layer1">
    <path
       id="path974"
       style="fill:#000000;stroke-width:0.054570508333"
       d="M 4.99917 0 C 4.5976 0 4.19603 0.0277591 3.94756 0.0831989 C 2.41686 0.424734 1.04519 1.54428 0.417028 2.96519 C -0.209329 4.38203 -0.12619 6.06113 0.639753 7.4569 C 0.979099 8.07528 1.84876 8.95872 2.46651 9.31311 C 2.99036 9.61364 3.75945 9.88469 4.28707 9.95442 C 5.42121 10.1043 6.54011 9.88303 7.53183 9.3126 C 8.12268 8.97275 8.97588 8.12277 9.30691 7.54475 C 10.1222 6.12125 10.2243 4.4196 9.58132 2.96519 C 8.95315 1.54428 7.58147 0.424734 6.05079 0.0831989 C 5.80231 0.0277591 5.40075 9.79154e-18 4.99917 0 Z M 5.58518 0.516764 C 5.6558 0.513386 5.72645 0.53969 5.82754 0.593761 C 5.91242 0.639169 6.01831 0.676444 6.06267 0.676444 C 6.12667 0.676444 6.1355 0.719235 6.10556 0.883666 C 6.06539 1.10418 6.02165 1.18132 5.98826 1.09089 C 5.85624 0.733342 5.66372 0.63545 5.51645 0.85111 C 5.39481 1.02922 5.40446 1.40829 5.53351 1.52807 C 5.62962 1.61728 5.64763 1.61773 5.80791 1.53272 C 5.99582 1.43306 6.07535 1.45682 5.97379 1.58233 C 5.8902 1.68563 5.64894 1.76683 5.51128 1.73788 C 5.35092 1.70414 5.17198 1.51322 5.10459 1.30379 C 5.02134 1.04506 5.12162 0.754711 5.34179 0.617016 C 5.44378 0.553231 5.51455 0.520144 5.58518 0.516764 Z M 4.48086 0.566373 C 4.61267 0.565725 4.62557 0.578147 4.56819 0.649055 C 4.48884 0.747129 4.5331 1.20017 4.64984 1.48673 L 4.72477 1.67121 L 4.51135 1.67121 C 4.31308 1.67121 4.30278 1.66337 4.36407 1.56269 C 4.4554 1.41271 4.34066 0.848342 4.19354 0.723986 C 4.08711 0.634024 4.08695 0.63268 4.20594 0.599963 C 4.27188 0.581834 4.39573 0.566788 4.48086 0.566373 Z M 3.53621 0.792199 C 3.5822 0.794789 3.59713 0.821892 3.57807 0.872814 C 3.56037 0.92014 3.62088 1.15796 3.71243 1.40146 C 3.80399 1.64496 3.86342 1.85977 3.84472 1.87895 C 3.82603 1.89813 3.65078 1.83349 3.4556 1.73478 C 3.26043 1.63606 3.0898 1.56641 3.07629 1.58026 C 3.02665 1.63118 3.23033 1.95446 3.33778 1.99522 C 3.44683 2.0366 3.44683 2.03876 3.32176 2.1208 C 3.07819 2.28057 3.07447 2.2805 3.10058 2.14044 C 3.1267 2.00029 2.92683 1.5873 2.71921 1.35237 C 2.64323 1.2664 2.6257 1.20967 2.66392 1.17047 C 2.70214 1.13127 2.85117 1.17483 3.14037 1.31 C 3.37177 1.41816 3.57015 1.49751 3.58117 1.48621 C 3.61581 1.45068 3.39535 0.966731 3.32382 0.92139 C 3.27345 0.88946 3.28257 0.867531 3.35948 0.83664 C 3.42473 0.810434 3.47696 0.795725 3.51451 0.792715 C 3.52233 0.792089 3.52964 0.791829 3.53621 0.792199 Z M 6.61613 0.845942 C 6.64909 0.84287 6.70995 0.863313 6.80216 0.906403 C 6.95017 0.975572 6.97458 1.03434 6.87967 1.09451 C 6.79503 1.14816 6.55025 1.72924 6.54946 1.87844 C 6.54872 2.01579 6.54506 2.01639 6.33346 1.93063 C 6.17196 1.86518 6.14284 1.79447 6.25904 1.74873 C 6.35788 1.70983 6.63604 1.03123 6.59649 0.925524 C 6.57781 0.875582 6.58316 0.849012 6.61613 0.845942 Z M 7.41453 1.23455 C 7.44878 1.23308 7.53688 1.28441 7.67704 1.38854 C 7.9407 1.58443 8.12508 1.81739 8.12508 1.95492 C 8.12508 2.22425 7.76411 2.35896 7.46775 2.20038 C 7.34495 2.13467 7.31264 2.13456 7.26105 2.19831 C 7.22744 2.23984 7.21543 2.32468 7.23469 2.38693 C 7.27117 2.50481 7.18833 2.54502 7.12514 2.44016 C 7.10534 2.4073 7.0138 2.33338 6.92153 2.27583 L 6.75358 2.17144 L 6.9205 2.1115 C 7.02725 2.07333 7.16091 1.94221 7.29257 1.74614 C 7.46726 1.486 7.48827 1.42398 7.43365 1.33428 C 7.39372 1.2687 7.38789 1.23569 7.41453 1.23455 Z M 2.17713 1.52187 C 2.19532 1.51868 2.1978 1.54319 2.1978 1.59318 C 2.1978 1.65222 2.31805 1.84957 2.46548 2.0314 C 2.61291 2.21323 2.73448 2.40625 2.73523 2.46083 C 2.73599 2.5154 2.67671 2.62135 2.60397 2.69596 C 2.40299 2.90209 2.17007 2.87469 1.87689 2.61069 C 1.74488 2.49182 1.57705 2.38717 1.50378 2.37815 L 1.37046 2.36161 L 1.50637 2.20038 L 1.64227 2.03863 L 1.84846 2.27324 C 2.02328 2.47172 2.28616 2.66598 2.3797 2.66598 C 2.42279 2.66598 2.57503 2.49524 2.57503 2.44688 C 2.57503 2.37166 2.15463 1.87428 2.03605 1.80919 C 1.92665 1.74913 1.92665 1.74677 2.06137 1.61695 C 2.1248 1.55584 2.15894 1.52506 2.17713 1.52187 Z M 7.73182 1.6247 C 7.72518 1.62416 7.71823 1.62431 7.71115 1.62574 C 7.66349 1.63536 7.57558 1.71047 7.51581 1.79265 C 7.42572 1.91653 7.4187 1.95694 7.47602 2.02778 C 7.57369 2.14848 7.73308 2.13354 7.80417 1.99729 C 7.87948 1.85293 7.83146 1.63286 7.73182 1.6247 Z M 5.03328 2.12338 C 5.41464 2.12515 5.79775 2.20879 6.15724 2.38641 L 6.48073 2.54609 L 5.89317 2.55075 C 5.32746 2.55508 5.30916 2.55886 5.39501 2.65617 C 5.47482 2.74661 5.4839 2.98656 5.4839 4.93768 C 5.4839 6.82145 5.47266 7.13425 5.40018 7.24038 L 5.31646 7.36337 L 5.77897 7.36337 L 6.24147 7.36337 L 6.119 7.19335 C 6.00263 7.03209 5.99527 6.96612 5.97947 5.9495 L 5.96242 4.8767 L 6.12882 4.8767 C 6.22012 4.8767 6.38522 4.93595 6.49572 5.00899 C 6.67847 5.12978 6.93914 5.24133 6.93859 5.19813 C 6.93846 5.18848 6.87768 5.05827 6.80371 4.90874 C 6.72975 4.7592 6.66935 4.54148 6.66935 4.42505 C 6.66935 4.30861 6.64938 4.21317 6.62491 4.21317 C 6.55906 4.21317 6.34637 4.45871 6.34637 4.5346 C 6.34637 4.57064 6.27354 4.60023 6.18463 4.60023 L 6.02288 4.60023 L 6.02288 3.68814 L 6.02288 2.77657 L 6.16034 2.77657 C 6.33209 2.77657 6.59716 2.91116 6.79079 3.09696 C 6.96876 3.26774 6.97708 3.2358 6.82438 2.97036 C 6.64698 2.66198 6.7385 2.68303 7.06726 3.02565 C 7.62043 3.60215 7.8923 4.36026 7.84034 5.18056 C 7.80683 5.70958 7.65762 6.14341 7.35096 6.60269 C 7.08619 6.99082 6.87248 7.16344 6.7386 7.26621 C 6.72588 7.27565 6.71212 7.28478 6.69881 7.29412 L 6.69881 7.2936 C 6.72025 7.1794 6.5649 7.10243 6.4828 7.18663 C 6.45122 7.21902 6.44037 7.28609 6.45903 7.33598 C 6.47244 7.37183 6.4987 7.39405 6.52879 7.40316 C 6.41655 7.46998 6.30689 7.52807 6.23837 7.56387 C 6.10501 7.63354 5.83328 7.72888 5.63479 7.77574 C 4.99222 7.92745 4.3461 7.85224 3.73155 7.55405 C 3.44368 7.41437 3.30939 7.2532 3.55792 7.3458 C 3.6246 7.37064 3.83834 7.39127 4.03334 7.39127 C 4.33321 7.39127 4.41685 7.36846 4.57388 7.24554 C 4.85807 7.02307 5.06334 6.58907 5.09426 6.14587 C 5.13223 5.6015 4.97777 5.2909 4.32531 4.60023 C 3.7403 3.98095 3.50892 3.56682 3.56774 3.24528 C 3.61322 2.99661 3.82301 2.83186 4.0938 2.83186 C 4.35697 2.83186 4.47782 2.89377 4.77645 3.18326 C 4.90604 3.3089 4.9989 3.37459 4.98264 3.32899 C 4.96638 3.2834 4.92207 3.10152 4.88393 2.92488 C 4.82588 2.65602 4.79841 2.60794 4.71495 2.63033 C 4.66012 2.64503 4.53268 2.6219 4.43177 2.57865 C 4.14368 2.45519 3.81658 2.48061 3.4866 2.65203 C 3.1093 2.84805 2.95353 3.11333 2.95227 3.56257 C 2.95094 4.03596 3.09179 4.26628 3.76824 4.89995 C 4.5131 5.59771 4.66802 5.87704 4.57491 6.35258 C 4.54128 6.5243 4.47746 6.72193 4.4328 6.79182 C 4.21961 7.12554 3.70757 7.17276 3.34811 6.89156 L 3.15071 6.73705 L 3.18843 6.89828 C 3.2091 6.98689 3.23983 7.10666 3.25664 7.16441 C 3.28474 7.26088 3.27336 7.2594 3.11712 7.14529 C 2.91968 7.00109 2.58263 6.55378 2.41845 6.21822 C 2.14605 5.66144 2.07053 4.90947 2.2257 4.29844 C 2.55931 2.98478 3.78751 2.1176 5.03328 2.12338 Z M 8.64701 2.34456 C 8.66785 2.34476 8.68643 2.38013 8.7209 2.45773 C 8.78352 2.59869 8.77263 2.62312 8.5359 2.87166 C 8.39752 3.01693 8.24243 3.22819 8.19122 3.34139 C 8.14002 3.4546 8.08363 3.54783 8.06616 3.54862 C 8.04869 3.54941 8.00108 3.48183 7.96023 3.39824 C 7.91938 3.31465 7.87701 3.22725 7.86618 3.20445 C 7.85535 3.18165 7.89694 3.16311 7.95868 3.16311 C 8.10139 3.16311 8.10113 3.09788 7.95816 2.96519 C 7.85269 2.86729 7.84119 2.86668 7.77833 2.95485 C 7.71709 3.04075 7.70123 3.0347 7.59488 2.88716 C 7.45376 2.69139 7.45114 2.66902 7.57265 2.70061 C 7.72455 2.74009 8.50988 2.51007 8.58551 2.40398 C 8.61324 2.3651 8.6308 2.3444 8.64701 2.34456 Z M 1.18494 2.67374 C 1.20925 2.67175 1.22783 2.69011 1.22783 2.73626 C 1.22783 2.84641 1.78842 3.2184 1.9544 3.2184 C 2.11371 3.2184 2.11787 3.23396 2.00401 3.41219 C 1.92817 3.53091 1.90808 3.53768 1.83813 3.46593 C 1.79446 3.42114 1.71962 3.38429 1.67173 3.38429 C 1.6053 3.38429 1.61912 3.42103 1.72961 3.53931 C 1.91615 3.73901 1.91183 3.77083 1.69912 3.77186 C 1.4763 3.77295 1.33987 3.85028 1.47019 3.90157 C 1.51955 3.92099 1.6061 3.93671 1.66295 3.93671 C 1.77126 3.93671 1.79542 4.02558 1.72031 4.14703 C 1.68472 4.20458 1.6633 4.20239 1.60972 4.13618 C 1.51136 4.01461 1.03319 3.86727 0.820104 3.89278 C 0.718293 3.90497 0.635103 3.90541 0.635103 3.89433 C 0.635103 3.81642 0.760138 3.66075 0.822688 3.66075 C 0.979716 3.66075 1.44332 3.53908 1.44332 3.49797 C 1.44332 3.47447 1.35676 3.33918 1.25108 3.19722 C 1.13617 3.04286 1.06571 2.89139 1.0759 2.8205 C 1.08791 2.73689 1.14443 2.67703 1.18494 2.67374 Z M 8.33178 2.69906 C 8.30584 2.69963 8.27365 2.70308 8.23515 2.70888 C 8.12529 2.72541 8.07081 2.7651 8.07081 2.82876 C 8.07081 3.02973 8.19976 3.0509 8.34005 2.87321 C 8.43331 2.75509 8.44317 2.70455 8.35555 2.69957 C 8.34825 2.69916 8.34043 2.69887 8.33178 2.69906 Z M 9.1245 3.27473 C 9.15485 3.27143 9.20326 3.33757 9.24542 3.45715 C 9.32889 3.6939 9.32721 3.71909 9.22888 3.68039 C 9.13597 3.64383 8.56985 3.85844 8.44805 3.9765 C 8.37676 4.04559 8.38661 4.0706 8.52918 4.18889 L 8.69041 4.32324 L 8.48836 4.32376 C 8.32107 4.32399 8.28631 4.30461 8.28631 4.21162 C 8.28631 4.14985 8.25121 4.01318 8.20827 3.90777 L 8.13024 3.71605 L 8.32971 3.71553 C 8.57952 3.71486 9.09452 3.47457 9.09452 3.35896 C 9.09452 3.30367 9.10629 3.27671 9.1245 3.27473 Z M 1.06608 4.8214 C 1.15498 4.82141 1.22783 4.84101 1.22783 4.86533 C 1.22783 4.91694 1.11325 5.04206 1.06608 5.04206 C 1.0483 5.04206 1.0045 5.01239 0.968932 4.97592 C 0.864122 4.86841 0.893884 4.8214 1.06608 4.8214 Z M 8.96843 4.93148 C 9.08642 4.93148 9.09747 4.94461 9.04078 5.01467 C 9.00389 5.06027 8.9551 5.09736 8.93226 5.09736 C 8.90943 5.09736 8.87697 5.06027 8.85991 5.01467 C 8.83725 4.95413 8.86647 4.93148 8.96843 4.93148 Z M 8.3478 5.34644 L 8.41808 5.54074 C 8.55425 5.91961 8.82171 6.30154 8.99479 6.36343 C 9.08614 6.39609 9.1825 6.40899 9.20873 6.39237 C 9.2713 6.35269 9.26912 6.43735 9.20304 6.61561 L 9.14982 6.75979 L 8.99169 6.6399 C 8.83457 6.52076 8.83257 6.5206 8.43927 6.61768 C 8.22199 6.6713 8.0138 6.73964 7.97676 6.7696 C 7.93971 6.79958 7.90907 6.80941 7.90907 6.79131 C 7.90907 6.7732 7.96249 6.64622 8.02741 6.50916 C 8.13564 6.28067 8.15312 6.26725 8.2367 6.34482 C 8.32525 6.42702 8.57907 6.40907 8.6346 6.31692 C 8.67662 6.24718 8.45244 5.92625 8.36175 5.92625 C 8.29688 5.92625 8.28249 5.89398 8.30646 5.80222 C 8.32433 5.73383 8.34118 5.60299 8.34367 5.5118 L 8.3478 5.34644 Z M 1.65158 5.77018 C 1.65293 5.7698 1.65422 5.76996 1.65571 5.77018 C 1.71325 5.77874 1.87037 6.23472 1.87275 6.42906 C 1.87597 6.69151 1.56847 6.86155 1.32498 6.73188 C 1.16535 6.64688 1.10959 6.68037 1.02578 6.91275 C 1.00121 6.98086 0.963657 7.01912 0.942577 6.9975 C 0.87245 6.92557 0.903093 6.74662 1.01234 6.58925 C 1.07172 6.50373 1.10536 6.39421 1.08727 6.34586 C 1.04014 6.21989 0.846162 6.23597 0.812352 6.3686 C 0.772633 6.52438 0.706625 6.50595 0.665075 6.32725 C 0.645635 6.24366 0.61814 6.1338 0.60358 6.08334 C 0.581187 6.00575 0.609479 5.99639 0.787031 6.02081 C 1.04161 6.05584 1.59699 5.90087 1.64124 5.78259 C 1.6439 5.77547 1.6475 5.77132 1.65158 5.77018 Z M 1.5353 6.06267 C 1.49359 6.06559 1.44027 6.08302 1.36477 6.11538 L 1.16944 6.1991 L 1.25367 6.36705 C 1.34334 6.54488 1.52727 6.59212 1.64796 6.46833 C 1.73579 6.37825 1.72964 6.17546 1.63659 6.09626 C 1.60721 6.07125 1.57701 6.05975 1.5353 6.06267 Z M 7.67187 7.11635 C 7.68672 7.11476 7.69358 7.126 7.69358 7.14943 C 7.69358 7.20657 7.83467 7.29804 8.09562 7.41039 C 8.41658 7.54857 8.52515 7.57296 8.6346 7.53028 C 8.82043 7.45781 8.80665 7.52796 8.59378 7.73957 C 8.39656 7.93562 8.34057 7.9562 8.34057 7.8331 C 8.34057 7.70598 8.27017 7.73285 8.08167 7.93232 C 7.88877 8.13644 7.87022 8.19225 7.99485 8.19225 C 8.11881 8.19225 8.06438 8.30066 7.85843 8.46356 C 7.68735 8.59886 7.67997 8.59978 7.71476 8.48733 C 7.76575 8.32255 7.59046 7.64437 7.4631 7.51374 C 7.35871 7.40667 7.35963 7.40445 7.52615 7.23366 C 7.60063 7.15727 7.64712 7.119 7.67187 7.11635 Z M 4.97127 7.15098 C 4.93891 7.14959 4.90597 7.16032 4.88032 7.18663 C 4.84873 7.21902 4.8384 7.28609 4.85706 7.33598 C 4.9002 7.45127 5.07295 7.42082 5.09684 7.2936 C 5.11158 7.21508 5.04246 7.15402 4.97127 7.15098 Z M 2.38952 7.18405 C 2.42168 7.18618 2.46672 7.22769 2.5585 7.31892 L 2.73368 7.49307 L 2.61379 7.55405 C 2.46182 7.63169 2.24477 8.16086 2.26704 8.39948 C 2.27626 8.49826 2.27747 8.57931 2.26963 8.57931 C 2.26179 8.57931 2.16886 8.50165 2.06344 8.40671 C 1.89035 8.25083 1.88066 8.22741 1.96267 8.1659 C 2.04543 8.10383 2.03782 8.07746 1.8743 7.86876 C 1.6864 7.62896 1.56952 7.58201 1.51618 7.72458 C 1.49169 7.79003 1.45512 7.76885 1.35599 7.63105 C 1.28544 7.53297 1.22783 7.4438 1.22783 7.43313 C 1.22783 7.42246 1.31395 7.43038 1.41955 7.4507 C 1.68125 7.50105 2.24475 7.37298 2.32234 7.24554 C 2.34734 7.20448 2.3645 7.18239 2.38952 7.18405 Z M 2.15852 7.48997 C 2.14211 7.49099 2.12371 7.49409 2.10323 7.49927 C 1.88122 7.55551 1.84166 7.62169 1.95388 7.74887 C 2.07693 7.88833 2.12503 7.88954 2.19573 7.75404 C 2.28803 7.57715 2.27335 7.48288 2.15852 7.48997 Z M 7.72252 7.53338 C 7.6873 7.53712 7.69158 7.56858 7.71166 7.64552 C 7.73067 7.71839 7.74639 7.80906 7.7468 7.84706 C 7.74792 7.95262 7.88087 7.92922 7.99123 7.80417 C 8.10455 7.67572 8.06405 7.61092 7.83362 7.5525 C 7.77908 7.53867 7.74365 7.53114 7.72252 7.53338 Z M 6.91223 7.77109 L 6.91636 8.42376 C 6.92061 9.17038 6.90295 9.19242 6.56083 8.87542 C 6.44142 8.76477 6.32647 8.69211 6.30503 8.71367 C 6.28358 8.73523 6.24132 8.87957 6.2115 9.03458 C 6.15003 9.35416 6.06557 9.41843 5.9526 9.23198 C 5.91002 9.1617 5.80583 8.96805 5.72057 8.80152 C 5.63531 8.63499 5.50875 8.46981 5.43945 8.43462 C 5.28996 8.35871 5.33626 8.31968 5.63427 8.2708 C 5.83615 8.23769 5.85233 8.24396 5.82651 8.34522 C 5.79769 8.45826 5.93877 8.80049 6.0141 8.80049 C 6.03704 8.80049 6.08581 8.65097 6.12262 8.46821 C 6.18308 8.168 6.19915 8.14127 6.29108 8.19174 C 6.34706 8.22246 6.44477 8.32218 6.50812 8.41343 C 6.57148 8.50468 6.64587 8.57931 6.67349 8.57931 C 6.75523 8.57931 6.7309 8.15215 6.64403 8.06306 C 6.57342 7.99064 6.58414 7.96888 6.73808 7.876 L 6.91223 7.77109 Z M 3.25664 7.93077 C 3.27125 7.92901 3.29041 7.93359 3.31556 7.94421 C 3.36742 7.96611 3.4523 7.99661 3.50417 8.0119 C 3.62775 8.04835 3.62445 8.11737 3.49746 8.15143 C 3.38101 8.18266 3.03009 8.87184 3.08456 8.96223 C 3.13553 9.04683 3.00485 9.03161 2.82515 8.93174 L 2.67115 8.84596 L 2.80499 8.69868 C 2.98879 8.49651 3.2215 8.10333 3.2215 7.99433 C 3.2215 7.95436 3.23229 7.93372 3.25664 7.93077 Z M 4.21266 8.27752 C 4.21455 8.27707 4.21638 8.27746 4.21834 8.27804 C 4.24797 8.28679 4.33914 8.30874 4.42091 8.32713 C 4.55992 8.35839 4.5648 8.36854 4.49378 8.48371 C 4.42779 8.59072 4.29896 9.09399 4.29896 9.24542 C 4.29896 9.32727 4.69359 9.30666 4.81624 9.21855 C 4.9202 9.14386 4.92445 9.14861 4.90254 9.30175 C 4.87998 9.45944 4.87191 9.46318 4.57594 9.45833 C 4.40889 9.45558 4.19627 9.4311 4.10362 9.40355 L 3.93516 9.35342 L 4.04833 9.11933 C 4.12156 8.96753 4.16145 8.77582 4.16253 8.57363 C 4.16345 8.40413 4.18434 8.28423 4.21266 8.27752 Z" />
  </g>
</svg>
